<svg width="56" height="56" viewBox="0 0 56 56" fill="none" xmlns="http://www.w3.org/2000/svg">
<rect x="4" y="4" width="48" height="48" rx="24" fill="#FFD580"/>
<mask id="mask0_0_8657" style="mask-type:alpha" maskUnits="userSpaceOnUse" x="15" y="16" width="25" height="25">
<rect x="15.7158" y="16.3574" width="24" height="24" fill="#D9D9D9"/>
</mask>
<g mask="url(#mask0_0_8657)">
<path d="M20.7158 34.4074C21.6158 33.5241 22.6618 32.8284 23.8538 32.3204C25.0452 31.8118 26.3325 31.5574 27.7158 31.5574C29.0992 31.5574 30.3868 31.8118 31.5788 32.3204C32.7702 32.8284 33.8158 33.5241 34.7158 34.4074V21.6574C34.7158 21.5908 34.6825 21.5241 34.6158 21.4574C34.5492 21.3908 34.4825 21.3574 34.4158 21.3574H21.0158C20.9492 21.3574 20.8825 21.3908 20.8158 21.4574C20.7492 21.5241 20.7158 21.5908 20.7158 21.6574V34.4074ZM27.7158 29.4074C28.6158 29.4074 29.3825 29.0908 30.0158 28.4574C30.6492 27.8241 30.9658 27.0574 30.9658 26.1574C30.9658 25.2408 30.6492 24.4698 30.0158 23.8444C29.3825 23.2198 28.6158 22.9074 27.7158 22.9074C26.8158 22.9074 26.0492 23.2198 25.4158 23.8444C24.7825 24.4698 24.4658 25.2408 24.4658 26.1574C24.4658 27.0574 24.7825 27.8241 25.4158 28.4574C26.0492 29.0908 26.8158 29.4074 27.7158 29.4074ZM21.0158 36.8574C20.5158 36.8574 20.0908 36.6824 19.7408 36.3324C19.3908 35.9824 19.2158 35.5574 19.2158 35.0574V21.6574C19.2158 21.1574 19.3908 20.7324 19.7408 20.3824C20.0908 20.0324 20.5158 19.8574 21.0158 19.8574H34.4158C34.9158 19.8574 35.3408 20.0324 35.6908 20.3824C36.0408 20.7324 36.2158 21.1574 36.2158 21.6574V35.0574C36.2158 35.5574 36.0408 35.9824 35.6908 36.3324C35.3408 36.6824 34.9158 36.8574 34.4158 36.8574H21.0158ZM22.1658 35.3574H33.2658V35.1574C32.4825 34.4408 31.6202 33.9114 30.6788 33.5694C29.7368 33.2281 28.7492 33.0574 27.7158 33.0574C26.6992 33.0574 25.7158 33.2281 24.7658 33.5694C23.8158 33.9114 22.9492 34.4324 22.1658 35.1324V35.3574ZM27.7158 27.9074C27.2325 27.9074 26.8198 27.7324 26.4778 27.3824C26.1365 27.0324 25.9658 26.6241 25.9658 26.1574C25.9658 25.6741 26.1365 25.2614 26.4778 24.9194C26.8198 24.5781 27.2325 24.4074 27.7158 24.4074C28.1992 24.4074 28.6118 24.5781 28.9538 24.9194C29.2952 25.2614 29.4658 25.6741 29.4658 26.1574C29.4658 26.6241 29.2952 27.0324 28.9538 27.3824C28.6118 27.7324 28.1992 27.9074 27.7158 27.9074Z" fill="#1C1B1F"/>
</g>
<rect x="4" y="4" width="48" height="48" rx="24" stroke="#FFBD2E" stroke-opacity="0.2" stroke-width="8"/>
</svg>
