<svg width="56" height="56" viewBox="0 0 56 56" fill="none" xmlns="http://www.w3.org/2000/svg">
<rect x="4" y="4" width="48" height="48" rx="24" fill="#D1FADF"/>
<mask id="mask0_0_8554" style="mask-type:alpha" maskUnits="userSpaceOnUse" x="16" y="16" width="24" height="24">
<rect x="16" y="16" width="24" height="24" fill="#D9D9D9"/>
</mask>
<g mask="url(#mask0_0_8554)">
<path d="M27.3 34.8H28.65V33.6C29.4333 33.5 30.1377 33.2083 30.763 32.725C31.3877 32.2417 31.7 31.5167 31.7 30.55C31.7 29.85 31.496 29.2293 31.088 28.688C30.6793 28.146 29.875 27.6583 28.675 27.225C27.625 26.875 26.925 26.5667 26.575 26.3C26.225 26.0333 26.05 25.6667 26.05 25.2C26.05 24.7333 26.2293 24.35 26.588 24.05C26.946 23.75 27.4333 23.6 28.05 23.6C28.5667 23.6 28.9873 23.725 29.312 23.975C29.6373 24.225 29.8833 24.5333 30.05 24.9L31.275 24.4C31.075 23.8667 30.7377 23.4123 30.263 23.037C29.7877 22.6623 29.2667 22.45 28.7 22.4V21.2H27.35V22.4C26.5 22.5667 25.846 22.9123 25.388 23.437C24.9293 23.9623 24.7 24.55 24.7 25.2C24.7 25.95 24.925 26.554 25.375 27.012C25.825 27.4707 26.5667 27.8833 27.6 28.25C28.6667 28.65 29.3917 29.004 29.775 29.312C30.1583 29.6207 30.35 30.0333 30.35 30.55C30.35 31.1833 30.125 31.6417 29.675 31.925C29.225 32.2083 28.7167 32.35 28.15 32.35C27.5833 32.35 27.0793 32.1793 26.638 31.838C26.196 31.496 25.8583 31 25.625 30.35L24.35 30.875C24.6167 31.6083 24.9917 32.1957 25.475 32.637C25.9583 33.079 26.5667 33.3833 27.3 33.55V34.8ZM28 37.5C26.6833 37.5 25.45 37.25 24.3 36.75C23.15 36.25 22.1457 35.5707 21.287 34.712C20.429 33.854 19.75 32.85 19.25 31.7C18.75 30.55 18.5 29.3167 18.5 28C18.5 26.6833 18.75 25.45 19.25 24.3C19.75 23.15 20.429 22.1457 21.287 21.287C22.1457 20.429 23.15 19.75 24.3 19.25C25.45 18.75 26.6833 18.5 28 18.5C29.3167 18.5 30.55 18.75 31.7 19.25C32.85 19.75 33.854 20.429 34.712 21.287C35.5707 22.1457 36.25 23.15 36.75 24.3C37.25 25.45 37.5 26.6833 37.5 28C37.5 29.3167 37.25 30.55 36.75 31.7C36.25 32.85 35.5707 33.854 34.712 34.712C33.854 35.5707 32.85 36.25 31.7 36.75C30.55 37.25 29.3167 37.5 28 37.5ZM28 36C30.2333 36 32.125 35.225 33.675 33.675C35.225 32.125 36 30.2333 36 28C36 25.7667 35.225 23.875 33.675 22.325C32.125 20.775 30.2333 20 28 20C25.7667 20 23.875 20.775 22.325 22.325C20.775 23.875 20 25.7667 20 28C20 30.2333 20.775 32.125 22.325 33.675C23.875 35.225 25.7667 36 28 36Z" fill="#1C1B1F"/>
</g>
<rect x="4" y="4" width="48" height="48" rx="24" stroke="#ECFDF3" stroke-width="8"/>
</svg>
