<svg width="56" height="56" viewBox="0 0 56 56" fill="none" xmlns="http://www.w3.org/2000/svg">
<rect x="4" y="4" width="48" height="48" rx="24" fill="#F2F4F7"/>
<mask id="mask0_0_8567" style="mask-type:alpha" maskUnits="userSpaceOnUse" x="16" y="16" width="25" height="25">
<rect x="16.2168" y="16.1914" width="24" height="24" fill="#D9D9D9"/>
</mask>
<g mask="url(#mask0_0_8567)">
<path d="M28.2168 31.8172C28.4501 31.8172 28.6418 31.7379 28.7918 31.5792C28.9418 31.4212 29.0168 31.2255 29.0168 30.9922C29.0168 30.7755 28.9418 30.5882 28.7918 30.4302C28.6418 30.2715 28.4501 30.1922 28.2168 30.1922C27.9835 30.1922 27.7918 30.2715 27.6418 30.4302C27.4918 30.5882 27.4168 30.7755 27.4168 30.9922C27.4168 31.2255 27.4918 31.4212 27.6418 31.5792C27.7918 31.7379 27.9835 31.8172 28.2168 31.8172ZM27.4668 28.3922H28.9668V23.5672H27.4668V28.3922ZM28.2168 37.6672C26.0501 37.0839 24.2585 35.8132 22.8418 33.8552C21.4251 31.8965 20.7168 29.7089 20.7168 27.2922V21.5422L28.2168 18.7422L35.7168 21.5422V27.2922C35.7168 29.7089 35.0085 31.8965 33.5918 33.8552C32.1751 35.8132 30.3835 37.0839 28.2168 37.6672ZM28.2168 36.0922C29.9501 35.5422 31.3835 34.4422 32.5168 32.7922C33.6501 31.1422 34.2168 29.3089 34.2168 27.2922V22.5672L28.2168 20.3172L22.2168 22.5672V27.2922C22.2168 29.3089 22.7835 31.1422 23.9168 32.7922C25.0501 34.4422 26.4835 35.5422 28.2168 36.0922Z" fill="#1C1B1F"/>
</g>
<rect x="4" y="4" width="48" height="48" rx="24" stroke="#F9FAFB" stroke-width="8"/>
</svg>
