<svg width="64" height="64" viewBox="0 0 64 64" fill="none" xmlns="http://www.w3.org/2000/svg">
<mask id="mask0_9_8899" style="mask-type:alpha" maskUnits="userSpaceOnUse" x="0" y="0" width="64" height="64">
<rect width="64" height="64" fill="#D9D9D9"/>
</mask>
<g mask="url(#mask0_9_8899)">
<path d="M30.8958 47.4H33.5625V34.8667L39.1625 40.4667L41.0292 38.5333L32.2292 29.7333L23.4292 38.5333L25.2958 40.4667L30.8958 34.8667V47.4ZM17.8958 56C16.6514 56 15.6185 55.5893 14.7972 54.768C13.9741 53.9449 13.5625 52.9111 13.5625 51.6667V12.3333C13.5625 11.0889 13.9741 10.0551 14.7972 9.232C15.6185 8.41067 16.6514 8 17.8958 8H38.8958L50.8958 20V51.6667C50.8958 52.9111 50.4852 53.9449 49.6638 54.768C48.8407 55.5893 47.8069 56 46.5625 56H17.8958ZM37.5625 21.3333V10.6667H17.8958C17.4514 10.6667 17.0629 10.8338 16.7305 11.168C16.3963 11.5004 16.2292 11.8889 16.2292 12.3333V51.6667C16.2292 52.1111 16.3963 52.4996 16.7305 52.832C17.0629 53.1662 17.4514 53.3333 17.8958 53.3333H46.5625C47.0069 53.3333 47.3954 53.1662 47.7278 52.832C48.0621 52.4996 48.2292 52.1111 48.2292 51.6667V21.3333H37.5625Z" fill="#CCCCCC"/>
</g>
</svg>
