<svg width="24" height="24" viewBox="0 0 24 24" fill="none" xmlns="http://www.w3.org/2000/svg">
<circle cx="12" cy="12" r="11" stroke="#80B539" stroke-opacity="0.31" stroke-width="2"/>
<mask id="path-2-inside-1_9_8862" fill="white">
<path d="M24 12C24 14.0067 23.4968 15.9813 22.5364 17.7433C21.5759 19.5052 20.189 20.9982 18.5025 22.0855C16.8159 23.1729 14.8836 23.82 12.8824 23.9675C10.8811 24.1151 8.87482 23.7584 7.04704 22.9301C5.21925 22.1019 3.62836 20.8285 2.41992 19.2265C1.21148 17.6245 0.424078 15.745 0.129766 13.76C-0.164546 11.775 0.0436286 9.74789 0.735241 7.86416C1.42685 5.98042 2.57982 4.3002 4.08864 2.97723L5.04986 4.07349C3.72436 5.23572 2.71148 6.71179 2.1039 8.36666C1.49632 10.0215 1.31344 11.8023 1.57199 13.5461C1.83054 15.29 2.52227 16.9411 3.58389 18.3485C4.6455 19.7558 6.04311 20.8745 7.64882 21.6021C9.25453 22.3298 11.0171 22.6431 12.7752 22.5135C14.5333 22.3838 16.2308 21.8154 17.7124 20.8601C19.1941 19.9049 20.4125 18.5933 21.2562 17.0455C22.0999 15.4976 22.542 13.7629 22.542 12H24Z"/>
</mask>
<path d="M24 12C24 14.0067 23.4968 15.9813 22.5364 17.7433C21.5759 19.5052 20.189 20.9982 18.5025 22.0855C16.8159 23.1729 14.8836 23.82 12.8824 23.9675C10.8811 24.1151 8.87482 23.7584 7.04704 22.9301C5.21925 22.1019 3.62836 20.8285 2.41992 19.2265C1.21148 17.6245 0.424078 15.745 0.129766 13.76C-0.164546 11.775 0.0436286 9.74789 0.735241 7.86416C1.42685 5.98042 2.57982 4.3002 4.08864 2.97723L5.04986 4.07349C3.72436 5.23572 2.71148 6.71179 2.1039 8.36666C1.49632 10.0215 1.31344 11.8023 1.57199 13.5461C1.83054 15.29 2.52227 16.9411 3.58389 18.3485C4.6455 19.7558 6.04311 20.8745 7.64882 21.6021C9.25453 22.3298 11.0171 22.6431 12.7752 22.5135C14.5333 22.3838 16.2308 21.8154 17.7124 20.8601C19.1941 19.9049 20.4125 18.5933 21.2562 17.0455C22.0999 15.4976 22.542 13.7629 22.542 12H24Z" stroke="#80B539" stroke-width="4" mask="url(#path-2-inside-1_9_8862)"/>
</svg>
